<?xml version="1.0" standalone="no"?>
<!DOCTYPE svg PUBLIC "-//W3C//DTD SVG 20010904//EN"
 "http://www.w3.org/TR/2001/REC-SVG-20010904/DTD/svg10.dtd">
<svg version="1.0" xmlns="http://www.w3.org/2000/svg"
 width="209.000000pt" height="203.000000pt" viewBox="0 0 209.000000 203.000000"
 preserveAspectRatio="xMidYMid meet">
<metadata>
Created by potrace 1.16, written by Peter Selinger 2001-2019
</metadata>
<g transform="translate(0.000000,203.000000) scale(0.100000,-0.100000)"
fill="#000000" stroke="none">
<path d="M917 1824 c-231 -42 -454 -205 -560 -411 -75 -147 -92 -215 -91 -373
1 -165 22 -250 91 -382 102 -194 281 -337 500 -400 111 -32 305 -32 416 0 248
71 445 247 538 478 121 301 45 654 -188 876 -192 182 -447 259 -706 212z m353
-152 c161 -53 316 -186 389 -333 54 -112 74 -193 74 -309 -1 -502 -536 -818
-988 -582 -96 50 -218 172 -268 269 -73 139 -98 335 -62 478 58 232 247 423
478 486 97 26 282 21 377 -9z"/>
<path d="M605 1306 c-120 -74 -114 -256 10 -316 94 -46 204 -8 246 84 36 79
13 169 -56 222 -54 41 -143 45 -200 10z"/>
<path d="M1347 1309 c-90 -47 -121 -172 -64 -257 71 -108 233 -108 304 -1 57
87 25 212 -67 259 -50 26 -123 26 -173 -1z"/>
<path d="M973 935 c-149 -89 -97 -316 77 -333 125 -12 223 104 191 225 -31
116 -165 170 -268 108z"/>
</g>
</svg>
